<svg width="695" height="289" viewBox="0 0 695 289" fill="none" xmlns="http://www.w3.org/2000/svg">
<path d="M506 31H668.363L695 77.4835L668.363 121H506L531.138 76L506 31Z" fill="#D06B4B"/>
<path d="M41.313 122.569C33.6929 122.569 27.0688 121.274 21.4409 118.684C15.7134 116.144 11.2061 112.234 7.91895 106.955C4.68164 101.676 2.91357 94.9771 2.61475 86.8589L2.76416 86.4106H23.2339C23.6323 93.5327 25.2261 98.5132 28.0151 101.352C30.8042 104.141 34.5146 105.536 39.1465 105.536C42.085 105.536 44.7246 104.888 47.0654 103.593C49.3066 102.298 51.0747 100.381 52.3696 97.8408C53.7144 95.251 54.3867 92.0884 54.3867 88.353V27.6162L39.7441 25.375V12.2266H87.7808V25.375L76.1265 27.6162V88.353C76.1265 95.2759 74.7817 101.327 72.0923 106.507C69.4028 111.637 65.4683 115.596 60.2886 118.385C55.1089 121.174 48.7837 122.569 41.313 122.569ZM165.298 96.125V121H93.2979V110.062L102.985 108.188V42.875L93.2979 41V30H163.923V54.5625H149.923L149.11 44.0625H121.235V66.9375H152.048V81H121.235V107H150.61L151.423 96.125H165.298ZM236.423 81.5L247.985 108.25L255.735 110.062V121H233.61L219.61 85.0625H202.985V108.188L212.735 110.062V121H175.048V110.062L184.735 108.188V42.875L175.048 41V30H218.173C225.215 30 231.215 31.0833 236.173 33.25C241.173 35.4167 245.006 38.5208 247.673 42.5625C250.381 46.6042 251.735 51.4583 251.735 57.125C251.735 62.5 250.402 67.2708 247.735 71.4375C245.069 75.6875 241.298 79.0417 236.423 81.5ZM202.985 44.0625V71H217.86C228.319 71 233.548 66.6458 233.548 57.9375C233.548 53.7292 232.256 50.375 229.673 47.875C227.09 45.3333 223.256 44.0625 218.173 44.0625H202.985ZM300.173 122.312C293.465 122.312 287.36 121.562 281.86 120.062C276.36 118.562 270.944 115.958 265.61 112.25V90.25H279.735L281.673 103.188C283.548 104.771 286.131 106.062 289.423 107.062C292.715 108.021 296.298 108.5 300.173 108.5C303.506 108.5 306.298 108.042 308.548 107.125C313.173 105.25 315.485 101.958 315.485 97.25C315.485 95.0417 314.965 93.1042 313.923 91.4375C311.881 88.1875 306.819 85.3125 298.735 82.8125C291.36 80.6458 285.402 78.3125 280.86 75.8125C276.11 73.3125 272.548 70.3125 270.173 66.8125C267.84 63.2708 266.673 59.0208 266.673 54.0625C266.673 49.1458 268.048 44.7917 270.798 41C273.506 37.25 277.277 34.2917 282.11 32.125C286.944 29.9583 292.527 28.8333 298.86 28.75C305.86 28.6667 312.048 29.5 317.423 31.25C322.84 33 327.506 35.4375 331.423 38.5625V59.0625H317.735L315.36 46.5625C313.777 45.5625 311.631 44.6875 308.923 43.9375C306.256 43.1875 303.215 42.8125 299.798 42.8125C296.881 42.8125 294.319 43.25 292.11 44.125C289.86 45 288.09 46.2708 286.798 47.9375C285.506 49.6042 284.86 51.625 284.86 54C284.86 56.0417 285.423 57.8125 286.548 59.3125C288.631 62.1458 294.173 65.0417 303.173 68C313.215 70.7917 320.819 74.4792 325.985 79.0625C331.194 83.6458 333.798 89.6667 333.798 97.125C333.798 102.333 332.402 106.792 329.61 110.5C326.819 114.292 322.902 117.208 317.86 119.25C312.819 121.292 306.923 122.312 300.173 122.312ZM378.673 110.062V121H341.048V110.062L350.735 108.188V42.875L341.048 41V30H378.673V41L368.985 42.875V108.188L378.673 110.062ZM457.673 96.125V121H385.673V110.062L395.36 108.188V42.875L385.673 41V30H456.298V54.5625H442.298L441.485 44.0625H413.61V66.9375H444.423V81H413.61V107H442.985L443.798 96.125H457.673ZM73.9219 274.012V287H29.0195V274.012L40.5977 271.785V195.637H20.9297L19.7422 208.551H3.33984V178.938H99.75V208.551H83.2734L82.0859 195.637H62.2695V271.785L73.9219 274.012ZM148.352 288.312C142.227 288.312 136.643 287.167 131.602 284.875C126.56 282.583 122.227 279.354 118.602 275.188C114.935 271.062 112.122 266.208 110.164 260.625C108.206 255 107.227 248.854 107.227 242.188V240.812C107.227 234.188 108.206 228.083 110.164 222.5C112.122 216.875 114.914 211.979 118.539 207.812C122.164 203.646 126.497 200.417 131.539 198.125C136.581 195.833 142.164 194.688 148.289 194.688C154.456 194.688 160.081 195.833 165.164 198.125C170.247 200.417 174.622 203.646 178.289 207.812C181.956 211.979 184.768 216.875 186.727 222.5C188.727 228.083 189.727 234.188 189.727 240.812V242.188C189.727 248.854 188.727 255 186.727 260.625C184.768 266.208 181.956 271.062 178.289 275.188C174.622 279.354 170.247 282.583 165.164 284.875C160.122 287.167 154.518 288.312 148.352 288.312ZM148.352 274.125C153.518 274.125 157.81 272.792 161.227 270.125C164.643 267.458 167.206 263.729 168.914 258.938C170.664 254.146 171.539 248.562 171.539 242.188V240.688C171.539 234.396 170.664 228.854 168.914 224.062C167.164 219.312 164.56 215.604 161.102 212.938C157.685 210.271 153.414 208.938 148.289 208.938C143.206 208.938 138.977 210.25 135.602 212.875C132.227 215.542 129.685 219.25 127.977 224C126.31 228.75 125.477 234.312 125.477 240.688V242.188C125.477 248.479 126.331 254.062 128.039 258.938C129.747 263.729 132.289 267.458 135.664 270.125C139.039 272.792 143.268 274.125 148.352 274.125ZM253.164 276.062V287H215.352V276.062L225.102 274.188V210.062H208.539L207.539 220.938H193.727V196H274.914V220.938H261.039L260.039 210.062H243.352V274.188L253.164 276.062ZM303.602 276.062V287H272.602V276.062L279.102 275.125L308.039 196H326.727L355.477 275.125L361.977 276.062V287H330.977V276.062L337.289 274.938L333.289 262.438H301.289L297.289 274.938L303.602 276.062ZM317.102 215.062L316.164 218L305.602 249H328.977L318.352 217.812L317.477 215.062H317.102ZM436.477 259.688V287H368.039V276.062L377.727 274.188V208.875L368.039 207V196H406.977V207L395.977 208.875V273H421.664L422.539 259.688H436.477ZM487.789 287H443.039V276.062L452.727 274.188V208.875L443.039 207V196H483.477C494.185 196 502.539 198.083 508.539 202.25C514.539 206.417 517.539 212.646 517.539 220.938C517.539 225.146 516.414 228.917 514.164 232.25C511.956 235.542 508.727 238.021 504.477 239.688C508.185 240.521 511.227 241.917 513.602 243.875C516.06 245.875 517.872 248.312 519.039 251.188C520.247 254.021 520.852 257.125 520.852 260.5C520.852 269.208 517.977 275.812 512.227 280.312C506.477 284.771 498.331 287 487.789 287ZM483.477 210.062H470.977V234.125H484.102C488.977 234.125 492.727 233.125 495.352 231.125C497.977 229.125 499.289 226.208 499.289 222.375C499.289 214.167 494.018 210.062 483.477 210.062ZM489.164 246.75H470.977V273H487.789C497.706 273 502.664 268.833 502.664 260.5C502.664 257.583 502.185 255.062 501.227 252.938C499.268 248.812 495.247 246.75 489.164 246.75ZM584.352 276.062V287H546.664V276.062L556.414 274.188V255.812L529.414 208.25L520.664 207V196H556.977V207L549.539 208.062L564.664 237.125L566.039 240.062L566.414 240L567.789 237.25L584.602 208.062L574.602 207V196H610.227V207L601.227 208.25L574.602 254.375V274.188L584.352 276.062ZM654.602 288.312C645.56 288.312 637.852 286.438 631.477 282.688C625.102 278.938 620.206 273.729 616.789 267.062C613.414 260.396 611.727 252.667 611.727 243.875V240.75C611.727 231.667 613.414 223.667 616.789 216.75C620.164 209.833 624.935 204.438 631.102 200.562C637.31 196.646 644.643 194.688 653.102 194.688C659.643 194.688 665.789 195.583 671.539 197.375C677.289 199.167 682.289 201.854 686.539 205.438V225.625H673.039L670.477 213.438C668.852 212.021 666.664 210.896 663.914 210.062C661.164 209.188 658.018 208.75 654.477 208.75C649.393 208.75 645.018 210.083 641.352 212.75C637.685 215.417 634.852 219.146 632.852 223.938C630.893 228.729 629.914 234.292 629.914 240.625V243.875C629.914 249.958 630.893 255.312 632.852 259.938C634.81 264.479 637.643 268.021 641.352 270.562C645.102 273.062 649.706 274.312 655.164 274.312C658.372 274.312 661.31 274.021 663.977 273.438C666.685 272.812 668.914 272.062 670.664 271.188V255.75L657.664 254.75V241.938H688.977V278.75C684.935 281.625 680.06 283.938 674.352 285.688C668.685 287.438 662.102 288.312 654.602 288.312Z" fill="white"/>
</svg>
